<svg xmlns="http://www.w3.org/2000/svg" viewBox="0 0 60 60" id="abstract">
  <path d="M59 0H1a1 1 0 0 0-1 1v58a1 1 0 0 0 1 1h58a1 1 0 0 0 1-1V1a1 1 0 0 0-1-1zm-5.474 30.229C52.378 31.18 51.387 32 49.329 32s-3.05-.821-4.198-1.771C43.867 29.185 42.436 28 39.658 28c-2.776 0-4.208 1.185-5.471 2.23-1.147.95-2.138 1.77-4.194 1.77-2.057 0-3.048-.82-4.196-1.771C24.534 29.185 23.103 28 20.326 28c-2.776 0-4.207 1.185-5.47 2.229C13.708 31.18 12.717 32 10.662 32s-3.045-.82-4.193-1.77C5.368 29.318 4.138 28.302 2 28.056v-5.973c1.406.223 2.252.908 3.193 1.687C6.456 24.815 7.886 26 10.662 26c2.776 0 4.207-1.185 5.47-2.229C17.279 22.82 18.27 22 20.326 22c2.057 0 3.048.82 4.196 1.771C25.785 24.815 27.216 26 29.993 26c2.776 0 4.207-1.185 5.47-2.229C36.61 22.82 37.602 22 39.658 22c2.058 0 3.049.82 4.197 1.771C45.119 24.815 46.551 26 49.329 26c2.777 0 4.209-1.185 5.473-2.229.943-.78 1.79-1.465 3.198-1.688v5.973c-2.14.245-3.371 1.262-4.474 2.173zM58 30.083v5.973c-2.14.245-3.371 1.262-4.474 2.173C52.378 39.18 51.387 40 49.329 40s-3.05-.821-4.198-1.771C43.867 37.185 42.436 36 39.658 36c-2.776 0-4.208 1.185-5.471 2.23-1.147.95-2.138 1.77-4.194 1.77-2.057 0-3.048-.82-4.196-1.771C24.534 37.185 23.103 36 20.326 36c-2.776 0-4.207 1.185-5.47 2.229C13.708 39.18 12.717 40 10.662 40s-3.045-.82-4.193-1.77C5.368 37.318 4.138 36.302 2 36.056v-5.973c1.406.223 2.252.908 3.193 1.687C6.456 32.815 7.886 34 10.662 34c2.776 0 4.207-1.185 5.47-2.229C17.279 30.82 18.27 30 20.326 30c2.057 0 3.048.82 4.196 1.771C25.785 32.815 27.216 34 29.993 34c2.776 0 4.207-1.185 5.47-2.229C36.61 30.82 37.602 30 39.658 30c2.058 0 3.049.82 4.197 1.771C45.119 32.815 46.551 34 49.329 34c2.777 0 4.209-1.185 5.473-2.229.943-.78 1.79-1.465 3.198-1.688zm-4.474-7.854C52.378 23.18 51.387 24 49.329 24s-3.05-.821-4.198-1.771C43.867 21.185 42.436 20 39.658 20c-2.776 0-4.208 1.185-5.471 2.23-1.147.95-2.138 1.77-4.194 1.77-2.057 0-3.048-.82-4.196-1.771C24.534 21.185 23.103 20 20.326 20c-2.776 0-4.207 1.185-5.47 2.229C13.708 23.18 12.717 24 10.662 24s-3.045-.82-4.193-1.77C5.368 21.318 4.138 20.302 2 20.056v-5.973c1.406.223 2.252.908 3.193 1.687C6.456 16.815 7.886 18 10.662 18c2.776 0 4.207-1.185 5.47-2.229C17.279 14.82 18.27 14 20.326 14c2.057 0 3.048.82 4.196 1.771C25.785 16.815 27.216 18 29.993 18c2.776 0 4.207-1.185 5.47-2.229C36.61 14.82 37.602 14 39.658 14c2.058 0 3.049.82 4.197 1.771C45.119 16.815 46.551 18 49.329 18c2.777 0 4.209-1.185 5.473-2.229.943-.78 1.79-1.465 3.198-1.688v5.973c-2.14.245-3.371 1.262-4.474 2.173zm0-8C52.378 15.18 51.387 16 49.329 16s-3.05-.821-4.198-1.771C43.867 13.185 42.436 12 39.658 12c-2.776 0-4.208 1.185-5.471 2.23-1.147.95-2.138 1.77-4.194 1.77-2.057 0-3.048-.82-4.196-1.771C24.534 13.185 23.103 12 20.326 12c-2.776 0-4.207 1.185-5.47 2.229C13.708 15.18 12.717 16 10.662 16s-3.045-.82-4.193-1.77C5.368 13.318 4.138 12.302 2 12.056V6.083c1.406.223 2.252.908 3.193 1.687C6.456 8.815 7.886 10 10.662 10c2.776 0 4.207-1.185 5.47-2.229C17.279 6.82 18.27 6 20.326 6c2.057 0 3.048.82 4.196 1.771C25.785 8.815 27.216 10 29.993 10c2.776 0 4.207-1.185 5.47-2.229C36.61 6.82 37.602 6 39.658 6c2.058 0 3.049.82 4.197 1.771C45.119 8.815 46.551 10 49.329 10c2.777 0 4.209-1.185 5.473-2.229.943-.78 1.79-1.465 3.198-1.688v5.973c-2.14.245-3.371 1.262-4.474 2.173zM2 38.083c1.406.223 2.252.908 3.193 1.687C6.456 40.815 7.886 42 10.662 42c2.776 0 4.207-1.185 5.47-2.229C17.279 38.82 18.27 38 20.326 38c2.057 0 3.048.82 4.196 1.771C25.785 40.815 27.216 42 29.993 42c2.776 0 4.207-1.185 5.47-2.229C36.61 38.82 37.602 38 39.658 38c2.058 0 3.049.82 4.197 1.771C45.119 40.815 46.551 42 49.329 42c2.777 0 4.209-1.185 5.473-2.229.943-.78 1.79-1.465 3.198-1.688v5.973c-2.14.245-3.371 1.262-4.474 2.173C52.378 47.18 51.387 48 49.329 48s-3.05-.821-4.198-1.771C43.867 45.185 42.436 44 39.658 44c-2.776 0-4.208 1.185-5.471 2.23-1.147.95-2.138 1.77-4.194 1.77-2.057 0-3.048-.82-4.196-1.771C24.534 45.185 23.103 44 20.326 44c-2.776 0-4.207 1.185-5.47 2.229C13.708 47.18 12.717 48 10.662 48s-3.045-.82-4.193-1.77C5.368 45.318 4.138 44.302 2 44.056v-5.973zM58 2v2.056c-2.14.245-3.371 1.262-4.474 2.173C52.378 7.18 51.387 8 49.329 8s-3.05-.821-4.198-1.771C43.867 5.185 42.436 4 39.658 4c-2.776 0-4.208 1.185-5.471 2.23C33.04 7.18 32.049 8 29.993 8c-2.057 0-3.048-.82-4.196-1.771C24.534 5.185 23.103 4 20.326 4c-2.776 0-4.207 1.185-5.47 2.229C13.708 7.18 12.717 8 10.662 8c-2.056 0-3.046-.82-4.193-1.77C5.368 5.318 4.138 4.302 2 4.056V2h56zM2 58V46.083c1.406.223 2.252.908 3.193 1.687C6.456 48.815 7.886 50 10.662 50c2.776 0 4.207-1.185 5.47-2.229C17.279 46.82 18.27 46 20.326 46c2.057 0 3.048.82 4.196 1.771C25.785 48.815 27.216 50 29.993 50c2.776 0 4.207-1.185 5.47-2.229C36.61 46.82 37.602 46 39.658 46c2.058 0 3.049.82 4.197 1.771C45.119 48.815 46.551 50 49.329 50c2.777 0 4.209-1.185 5.473-2.229.943-.78 1.79-1.465 3.198-1.688V58H2z"></path>
  <circle cx="10" cy="54" r="2"></circle>
  <circle cx="20" cy="54" r="2"></circle>
  <circle cx="30" cy="54" r="2"></circle>
  <circle cx="40" cy="54" r="2"></circle>
  <circle cx="50" cy="54" r="2"></circle>
</svg>
