<svg xmlns="http://www.w3.org/2000/svg" viewBox="0 0 60 60" id="abstract">
  <path d="M59 0H1a1 1 0 0 0-1 1v58a1 1 0 0 0 1 1h58a1 1 0 0 0 1-1V1a1 1 0 0 0-1-1zM2 40V29.544l17.604 7.891a10.914 10.914 0 0 0-.554 2.564H2zm18.421-4.39L2 27.352V13.473l19.677 20.356a11.074 11.074 0 0 0-1.256 1.781zM30 32c4.624 0 8.441 3.507 8.941 8H21.059c.5-4.493 4.317-8 8.941-8zm1-1.949V2h14.488L33.363 30.53A10.934 10.934 0 0 0 31 30.051zm-2 0c-.817.074-1.607.236-2.363.48L14.512 2H29v28.051zM40.949 40a10.914 10.914 0 0 0-.554-2.564L58 29.544V40H40.949zM58 27.352 39.579 35.61a11.012 11.012 0 0 0-1.256-1.781L58 13.473v13.879zm0-16.756-21.112 21.84a11.119 11.119 0 0 0-1.684-1.124L47.662 2H58v8.596zM12.338 2l12.458 29.313c-.597.322-1.159.701-1.684 1.124L2 10.596V2h10.338zM2 58V42h56v16H2z"></path>
  <path d="M11 44H5a1 1 0 0 0 0 2h6a1 1 0 0 0 0-2zm11 0h-6a1 1 0 0 0 0 2h6a1 1 0 0 0 0-2zm11 0h-6a1 1 0 0 0 0 2h6a1 1 0 0 0 0-2zm11 0h-6a1 1 0 0 0 0 2h6a1 1 0 0 0 0-2zm11 0h-6a1 1 0 0 0 0 2h6a1 1 0 0 0 0-2zm-44 5H5a1 1 0 0 0 0 2h6a1 1 0 0 0 0-2zm11 0h-6a1 1 0 0 0 0 2h6a1 1 0 0 0 0-2zm11 0h-6a1 1 0 0 0 0 2h6a1 1 0 0 0 0-2zm11 0h-6a1 1 0 0 0 0 2h6a1 1 0 0 0 0-2zm11 0h-6a1 1 0 0 0 0 2h6a1 1 0 0 0 0-2zm-44 5H5a1 1 0 0 0 0 2h6a1 1 0 0 0 0-2zm11 0h-6a1 1 0 0 0 0 2h6a1 1 0 0 0 0-2zm11 0h-6a1 1 0 0 0 0 2h6a1 1 0 0 0 0-2zm11 0h-6a1 1 0 0 0 0 2h6a1 1 0 0 0 0-2zm11 0h-6a1 1 0 0 0 0 2h6a1 1 0 0 0 0-2z"></path>
  <circle cx="30" cy="37" r="2"></circle>
</svg>
