<svg xmlns="http://www.w3.org/2000/svg" viewBox="0 0 60 60" id="abstract">
  <path d="M59 0H1a1 1 0 0 0-1 1v58a1 1 0 0 0 1 1h58a1 1 0 0 0 1-1V1a1 1 0 0 0-1-1zm-1 28.975C43.355 28.457 31.543 16.645 31.025 2H58v26.975zM51.322 30C40.94 32.751 32.751 40.94 30 51.322 27.249 40.94 19.06 32.751 8.678 30 19.06 27.249 27.249 19.06 30 8.678 32.751 19.06 40.94 27.249 51.322 30zM28.975 2C28.457 16.645 16.645 28.457 2 28.975V2h26.975zM2 31.025c14.645.518 26.457 12.33 26.975 26.975H2V31.025zM31.025 58C31.543 43.355 43.355 31.543 58 31.025V58H31.025z"></path>
  <path d="M30 23c-3.86 0-7 3.14-7 7s3.14 7 7 7 7-3.14 7-7-3.14-7-7-7zm0 12c-2.757 0-5-2.243-5-5s2.243-5 5-5 5 2.243 5 5-2.243 5-5 5z"></path>
  <circle cx="30" cy="30" r="2"></circle>
</svg>
