<svg xmlns="http://www.w3.org/2000/svg" enable-background="new 0 0 130 130" viewBox="0 0 130 130" id="embroidered-design">
  <path d="M108.9954,81.131c2.1576,4.8053,10.2562,5.9496,15.7852-1.3101c2.8144-3.5962,4.241-8.5854,4.241-14.8291
		c0-20.1929-16.3622-24.3087-20.023-16.1494c-1.3109,0.4902-2.5633,1.2437-3.6702,2.2437
		c-3.502,3.1631-12.9841,9.4385-22.3182,11.4893c4.6711-2.7181,9.2888-7.3752,15.6665-11.5303
		c-7.5316,1.59-13.9441,1.5306-19.2064,2.9131c8.0479-5.1396,19.1735-7.4019,23.8802-7.6411
		c1.4764-0.0747,2.8821-0.4219,4.1465-0.9922c4.9921,1.9442,11.5009-3.0836,10.2776-12.0737
		c-0.5522-4.5322-3.0717-9.0693-7.4867-13.4853C95.9664,5.444,81.5914,14.208,84.7018,22.4787
		c-0.5798,1.2729-0.9324,2.6909-1.0084,4.1807c-0.239,4.708-2.5017,15.8369-7.6461,23.8867
		c1.3705-5.2115,1.3375-11.7428,2.9144-19.2148c-4.2062,6.4573-8.7784,10.9426-11.5221,15.6426
		c2.0565-9.3262,8.325-18.7939,11.4847-22.292c1.0027-1.1108,1.7578-2.3672,2.2479-3.6812c2.9787-1.3466,4.3179-4.9481,3.732-8.2026
		c-2.835-15.5596-36.8754-15.8663-39.7632,0c-0.6061,3.3309,0.8679,6.9296,3.7383,8.2124c0.4902,1.311,1.244,2.564,2.2444,3.6714
		c3.1605,3.499,9.4301,12.9712,11.4845,22.2998c-2.7424-4.7006-7.3221-9.1953-11.5264-15.6494
		c1.5905,7.535,1.5294,13.9423,2.9133,19.209c-5.1403-8.0483-7.4036-19.1763-7.6432-23.8843
		c-0.076-1.4995-0.4322-2.9272-1.0191-4.2065c1.6066-4.4042-2.3226-10.9264-11.1757-10.3135
		c-5.6294,0.3964-10.4326,3.5873-14.4241,7.6084c-14.2703,14.3745-5.3886,28.9178,2.916,25.623
		c1.238,0.543,2.6077,0.874,4.0446,0.9468c4.7084,0.2397,15.8402,2.5034,23.8895,7.6475
		c-5.2111-1.3705-11.7456-1.3378-19.2172-2.9141c6.389,4.1613,10.9706,8.7952,15.6602,11.5249
		c-9.332-2.0522-18.8093-8.3257-22.3102-11.4873c-1.1033-0.9971-2.3512-1.749-3.6573-2.2393
		c-1.3334-2.9249-4.9285-4.3246-8.254-3.7266C0.071,47.44-2.6479,70.9018,5.956,80.5739c5.7618,6.5414,13.2585,5.0184,15.2357,0.502
		c1.2576-0.4917,2.4583-1.2251,3.524-2.188c3.502-3.1626,12.9844-9.4385,22.3187-11.4893
		c-4.6945,2.7325-9.2444,7.3466-15.6668,11.5308c7.5357-1.5908,13.9488-1.5321,19.2054-2.9131
		c-8.0482,5.1392-19.1728,7.4009-23.8794,7.6406c-1.5005,0.0762-2.9287,0.4326-4.209,1.0195
		c-5.0204-1.8317-11.4274,3.2487-10.215,12.145c0.5551,4.5322,3.0823,9.0591,7.5109,13.4546
		c14.369,14.2684,28.9432,5.4437,25.6224-2.9165c0.5432-1.2383,0.8741-2.6079,0.9471-4.0439
		c0.2398-4.7095,2.5041-15.8403,7.6475-23.8892c-1.3709,5.2114-1.338,11.7446-2.9149,19.2168
		c4.1995-6.447,8.7797-10.9459,11.5222-15.6426c-2.0564,9.3262-8.3251,18.7935-11.4848,22.2915
		c-0.997,1.1045-1.749,2.353-2.2393,3.6587c-8.0167,3.6652-4.2626,20.0361,16.1479,20.0361
		c20.4223-0.075,24.1255-16.6663,16.0797-20.1709c-0.4914-1.2573-1.2246-2.4575-2.1866-3.5234
		c-3.1606-3.499-9.4311-12.9702-11.4855-22.2998c2.7152,4.6542,7.3584,9.251,11.5264,15.6494
		c-1.5903-7.5352-1.5307-13.9481-2.9129-19.2085c5.1412,8.0493,7.403,19.1763,7.642,23.8838
		c0.0754,1.4761,0.4227,2.8818,0.9929,4.1455c-1.9457,5.0121,3.1431,11.4883,12.0743,10.2759
		c4.532-0.5527,9.0689-3.0718,13.4849-7.4868c14.1865-14.1823,5.6808-28.7395-2.7136-25.5859
		c-1.2726-0.5791-2.6901-0.9316-4.1793-1.0068c-4.7086-0.2393-15.8408-2.5034-23.89-7.6479
		c5.1981,1.3678,11.6912,1.3267,19.2178,2.9146c-6.3745-4.1517-10.9615-8.7894-15.6608-11.5254
		c9.3317,2.0527,18.8098,8.3262,22.3108,11.4873C106.4345,79.8874,107.6858,80.6408,108.9954,81.131z M110.005,80.2961
		c-1.2559-3.4561,1.3535-5.1444,1.4291-5.2446c3.523,0.3849,4.4429-3.8695,1.825-4.7368c-0.9575-0.3175-2.2319,0.1163-1.8057,0.8813
		c0.3691,0.6539,0.7797-0.0443,1.4546,0.1768c0.293,0.0972,0.5349,0.3057,0.6479,0.5571c0.9472,2.1154-3.3505,3.3234-4.3956-0.147
		c-0.5516-2.1039,0.8505-3.9059,2.6257-4.5234c1.3762-0.4814,3.0629-0.2935,4.5059,0.5
		C123.3876,71.6628,119.1166,82.9962,110.005,80.2961z M110.0071,49.6784c9.0025-2.663,13.4623,8.587,6.2849,12.5371
		c-1.443,0.7925-3.1277,0.9819-4.5059,0.4995c-1.783-0.6205-3.1772-2.4288-2.6257-4.522c1.045-3.4784,5.3315-2.235,4.3965-0.1489
		c-0.2183,0.486-0.9008,0.7686-1.3453,0.52c-0.6407-0.3585-1.189,0.6122-0.5435,0.9731c1.0352,0.5807,2.4304,0.025,2.9063-1.0381
		c0.7621-1.7045-0.6746-3.8479-3.1441-3.5757c-0.0366-0.0469-0.0727-0.0947-0.1239-0.1309
		C109.9163,53.8152,109.2669,51.72,110.0071,49.6784z M97.9162,59.0275c0.3956-0.77,1.2089-1.2749,2.032-1.229
		c0.4904,0.0293,0.9923,0.2583,1.3772,0.6294c0.3153,0.3042,0.5097,0.6611,0.5464,1.0068c0.0367,0.3438-0.0986,0.6846-0.3385,0.8491
		c-0.2089,0.1445-0.5387,0.125-0.6828-0.0376c-0.2031-0.231-0.5561-0.2539-0.7863-0.0508
		c-0.2321,0.2031-0.2543,0.5547-0.0512,0.7866c0.5145,0.585,1.4797,0.6841,2.1519,0.2197c0.5755-0.3945,0.8956-1.1348,0.8153-1.8853
		c-0.0648-0.6055-0.3772-1.2061-0.881-1.6914c-0.5812-0.5605-1.3221-0.894-2.0852-0.9395
		c-0.1901-0.0117-0.3801,0.0029-0.5691,0.0288c6.5634-4.0593,6.4186-5.174,9.1273-6.48c-0.3513,1.9055,0.1547,3.8273,1.5106,5.1177
		c-2.7644,1.5546-1.5651,5.0616-5.5841,7.5225c-1.1499,0.7046-2.4846,0.9922-3.6713,0.7905
		c-1.2737-0.2178-2.3812-1.0171-2.8898-2.0859C97.5419,60.7482,97.5332,59.7702,97.9162,59.0275z M95.2063,46.4987
		c0.1525-0.1162,0.3002-0.2388,0.4284-0.3828c1.699-1.9083,0.5414-5.1205-1.6722-4.7158c-0.8027,0.1484-1.416,0.9014-1.3666,1.6782
		c0.0184,0.3081,0.3114,0.5469,0.5909,0.5205c0.3076-0.019,0.5406-0.2842,0.5213-0.5913c-0.0135-0.2163,0.2089-0.4653,0.4575-0.5107
		c1.061-0.2097,1.6612,1.7277,0.6354,2.8784c-0.5329,0.5996-1.4827,0.833-2.3057,0.5684c-0.796-0.2554-1.4807-0.9526-1.7892-1.8198
		c-0.3956-1.1152-0.178-2.4634,0.5687-3.5186c0.6935-0.9795,1.8434-1.7222,3.1558-2.0366c1.1925-0.2881,2.5146-0.252,3.9295,0.1025
		c2.3587,0.5895,2.8708,1.9689,5.3525,1.2637c-0.0638,1.8928,0.9397,3.6033,2.5096,4.6997
		C103.5241,45.5683,102.4293,44.7952,95.2063,46.4987z M104.9639,39.2809c2.7397-2.2128,0.4095-5.8812-2.066-4.6338
		c-0.8807,0.4421-1.5081,1.6591-0.6547,1.8999c0.7222,0.2045,0.5211-0.5839,1.1548-0.9038c0.2756-0.1372,0.5948-0.1616,0.8511-0.064
		c2.1669,0.825-0.021,4.7225-3.2131,3.0034c-0.001-0.001-0.0016-0.002-0.0027-0.0024c-3.246-2.1195-1.8252-6.7166,2.2022-7.8843
		c5.1306-1.4913,9.9594,3.3065,8.4915,8.4521c-0.5831,2.0424-2.1459,3.8187-4.0964,4.8696
		C104.352,42.459,104.9846,39.3854,104.9639,39.2809z M85.3816,23.7746c1.0798,1.578,2.7897,2.6095,4.6845,2.5679
		c-0.2847,1.0493-0.1239,2.228,0.4197,3.2163c0.0045,0.0078,0.0046,0.0166,0.0095,0.0239c0.0049,0.0078,0.0091,0.0166,0.014,0.0244
		c0.026,0.0459,0.0513,0.0913,0.079,0.1367c1.5769,2.6488,1.5455,7.0629-1.1831,8.9912c-1.0551,0.7466-2.4043,0.9644-3.5184,0.5693
		c-0.8676-0.3081-1.5649-0.9937-1.8192-1.7891c-0.265-0.8257-0.0309-1.7739,0.5677-2.3062
		c1.1464-1.0189,3.0782-0.4402,2.8782,0.6367c-0.0455,0.2476-0.2669,0.4536-0.5106,0.4565
		c-0.2863-0.0239-0.5716,0.2129-0.5909,0.521c-0.0193,0.3066,0.2137,0.5718,0.5213,0.5913c0.7698,0.0474,1.5291-0.564,1.677-1.3667
		c0.4079-2.2101-2.8087-3.3655-4.7158-1.6724c-0.1411,0.1255-0.2643,0.2676-0.3785,0.4165
		C85.2674,27.3605,84.4025,26.5887,85.3816,23.7746z M94.1521,28.1515c2.4288-0.6837,1.6672-4.6307-1.3066-4.3267
		c-0.8165,0.0815-1.5933,0.5605-2.1433,1.2603c-0.2693-0.0209-1.5291,0.3536-3.0803-0.749c-0.7112-0.5049-1.264-1.207-1.6183-1.9746
		c4.5245-8.3468,15.5712-3.3617,13.3112,4.4146c-1.137,3.92-5.5906,5.5012-7.8867,2.1978
		c-1.7184-3.1981,2.1849-5.3536,3.0046-3.2129c0.1881,0.4967-0.0922,1.1788-0.5842,1.3184
		C93.5524,27.1627,93.4403,28.3522,94.1521,28.1515z M82.8791,37.2643c0.0264,0.1987,0.0643,0.397,0.1266,0.5913
		c0.3646,1.1362,1.3018,2.0713,2.5078,2.499c0.4865,0.1729,1.0039,0.2568,1.5291,0.2568c1.0426,0,2.1113-0.332,3.0069-0.9663
		c3.9829-2.8163,2.3521-8.1822,2.3677-8.2822c3.0966,1.4713,6.8493-0.4181,7.9692-4.2764
		c2.4836-8.5576-9.0073-14.4956-14.7773-6.2051c-0.6218-7.1283,11.5781-12.4712,23.8066-0.2437
		c3.7898,3.7906,6.8487,8.3468,7.2275,13.6689c0.4657,6.7897-3.6494,10.5598-7.5629,10.1289
		c8.4366-5.7998,2.3298-17.2709-6.1561-14.8105c-1.8792,0.5454-3.4614,1.8237-4.2332,3.4189
		c-0.707,1.4639-0.6952,3.1777-0.0426,4.5503c-0.4816-0.068-2.279-0.6376-4.4778-0.1104c-1.5938,0.3828-2.9449,1.2622-3.8047,2.4771
		c-0.9536,1.3462-1.2253,3.084-0.7098,4.5361c0.4284,1.2051,1.3627,2.1431,2.4991,2.5078c0.1935,0.0625,0.3906,0.1016,0.5884,0.1279
		c-11.7756,3.2543-16.4406,7.8568-17.3805,8.3853c-0.2783-0.3037-0.5689-0.5942-0.8727-0.8726
		C74.9825,53.7718,79.5925,49.1607,82.8791,37.2643z M73.2973,30.5617c0.377-2.8313-3.1064-4.7269-4.4893-2.7178
		c-0.8413,1.2244,0.3239,2.88,1.0078,2.1025c0.5175-0.5897-0.5143-0.8522-0.089-1.4702c0.3049-0.4454,1.1346-0.5389,1.856,0.208
		c1.8079,1.8754-0.5188,4.6444-3.1509,3.3882c-2.8718-1.3672-3.3442-6.3317,1.5552-9.2681
		c2.0884-1.2496,3.4189-0.6407,4.6738-2.8809c1.2039,1.2697,3.0604,1.89,5.1168,1.5107
		C78.4924,24.1006,77.2944,24.0984,73.2973,30.5617z M80.3317,20.0045c-3.3256,1.2096-5.1431-1.3541-5.2443-1.4297
		c0.3829-3.515-3.863-4.4557-4.7368-1.8242c-0.1808,0.5474-0.1364,1.127,0.1228,1.5913c0.3621,0.6456,1.3312,0.0985,0.973-0.5444
		c-0.2477-0.4447,0.0334-1.1273,0.5193-1.3442c2.1122-0.9408,3.3221,3.3579-0.1514,4.3965c-0.5307,0.1747-1.0469,0.15-1.25,0.1284
		c-2.8863-0.3151-4.6155-3.9008-2.769-7.2603c2.0067-3.6469,6.0983-3.5765,5.9983-3.5469
		C78.5132,10.171,81.8806,14.7732,80.3317,20.0045z M62.2517,13.7179c2.1878,3.9727-0.6589,8.0183-4.021,7.1318
		c-3.4884-1.0487-2.224-5.3145-0.1493-4.3965c0.4843,0.2172,0.7689,0.8989,0.5193,1.3442
		c-0.1499,0.2681-0.0542,0.6084,0.2137,0.7588c0.7737,0.4338,1.1937-0.8663,0.883-1.8042
		c-0.6089-1.8353-2.9388-1.9742-4.1075-0.5459c-0.5119,0.626-0.7244,1.498-0.629,2.3701c-0.1681,0.1298-1.9592,2.6149-5.2454,1.4258
		C47.0611,11.0242,58.2785,6.4912,62.2517,13.7179z M61.0186,29.9972c1.2036-1.0604,0.2281-3.17-1.6654-2.9678
		c-1.4423,0.1537-2.8416,1.7516-2.6032,3.5327c-3.9324-6.3593-5.2081-6.4918-6.4787-9.1255
		c2.0485,0.3763,3.9169-0.2499,5.1172-1.5112c1.173,2.0919,2.7563,1.7308,4.6717,2.8789c6.7284,4.0317,2.9207,11.3011-0.9962,9.29
		c-0.7708-0.3965-1.2757-1.2329-1.2292-2.0337c0.0581-0.9816,0.8854-1.843,1.6364-1.9229c0.8046-0.0829,1.201,0.6796,0.8105,1.0215
		C59.7302,29.645,60.459,30.4825,61.0186,29.9972z M58.044,32.7545c4.801,3.6913,11.1965-5.7496,2.5887-10.9067
		c-0.0052-0.0029-0.0103-0.0054-0.0156-0.0088c3.2302-1.1493,4.5492-5.1388,2.6114-8.6582
		c-4.3528-7.915-16.6064-3.7582-14.8347,6.0708c-3.1624-2.6144-3.2814-8.4991,2.5219-13.0371
		c9.2201-7.2096,30.6949-4.6151,32.7737,6.8027c0.4055,2.2457-0.2342,4.7623-2.0361,6.2388
		c1.7851-9.8815-10.5143-13.9258-14.8348-6.0752c-0.9439,1.7158-1.1586,3.7383-0.5754,5.4102
		c0.534,1.5352,1.7536,2.7383,3.1868,3.248c-0.3884,0.2924-2.0643,1.1624-3.2438,3.0898c-2.5046,4.0875-0.0232,8.5673,3.5794,8.5645
		c0.6045,0,1.1983-0.1357,1.7264-0.4077c0.1827-0.0938,0.3505-0.208,0.5106-0.3306c-6.0272,10.6278-6.0723,17.1854-6.3621,18.2197
		c-0.2064-0.0088-0.4093-0.0313-0.6178-0.0313c-0.209,0-0.4123,0.0225-0.6191,0.0313
		C64.1261,49.9832,64.1448,43.5144,58.044,32.7545z M46.531,34.7926c-1.1118-1.4532-3.2347-1.5453-4.3389-0.6563
		c-1.4869,1.2021-0.6666,3.3788,0.9197,3.2764c0.744-0.0472,0.6505-1.1683-0.0696-1.1123c-0.5731-0.0255-0.7393-0.819-0.1499-1.2964
		c0.5845-0.4711,1.7783-0.4534,2.5175,0.2026c1.2692,1.1287,0.7266,3.3937-1.2515,4.0962
		c-2.1854,0.7734-4.8321-0.7186-5.5562-3.7241c-0.475-1.9781,0.0082-4.5243,0.9487-5.998c0.0059-0.0093,0.0061-0.0195,0.0114-0.0288
		c0.5422-0.9878,0.7023-2.165,0.4175-3.2134c1.9182,0.0431,3.6188-1.0082,4.68-2.5806
		C45.6465,26.5835,44.7967,27.4361,46.531,34.7926z M35.8931,28.1491c0.7139,0.2006,1.0106-0.8729,0.3036-1.0723
		c-0.4949-0.1404-0.7701-0.8251-0.5832-1.3184c0.4335-1.1277,2.2183-1.1847,3.0649,0.2896
		c0.7229,1.2595,0.2292,3.0309-0.8569,3.9014c-2.2612,1.8184-6.0206,0.5084-7.0911-3.1758
		c-2.2347-7.6996,8.7125-12.8534,13.3021-4.4336c-0.8979,1.9973-2.8563,3.0267-4.532,2.7378
		c-0.0533-0.0098-0.1051-0.001-0.1573,0.0039c-1.5647-1.9891-4.1152-1.4395-4.7703,0.2793
		C34.1536,26.4549,34.7599,27.8294,35.8931,28.1491z M22.5025,44.0651c-8.5189-4.475-3.4955-15.6415,4.3071-13.3716
		c4.113,1.193,5.3697,5.8123,2.2022,7.8848l-0.0015,0.001c-1.9448,1.0482-3.8986-0.0768-4.0411-1.5254
		c-0.0947-0.9452,0.7366-1.8834,1.678-1.4131c0.6412,0.3236,0.4344,1.1074,1.1548,0.9038c0.8591-0.2423,0.2233-1.4591-0.6547-1.8999
		c-2.5275-1.2694-4.8205,2.4965-2.0077,4.6768C25.1204,39.4251,25.6867,42.5266,22.5025,44.0651z M34.7141,43.9552
		c-0.0159-1.0325,0.6346-1.5641,1.1654-1.46c0.7372,0.1361,0.1998,1.0532,0.9778,1.1016c1.0239,0.0565,0.6916-1.9275-0.7747-2.1978
		c-2.3991-0.4496-3.5195,3.365-1.2435,5.0977c-7.2445-1.7084-8.2033-0.9227-10.9168-1.8296c1.68-1.1915,2.5447-2.9552,2.4705-4.7202
		c2.276,0.6075,3.2068-0.7562,5.2922-1.2783c3.3581-0.8379,5.8802,0.2324,7.0853,1.9346c1.4971,2.1167,0.6431,4.7408-1.2206,5.3389
		C36.7248,46.2062,34.7454,45.5308,34.7141,43.9552z M37.3015,47.1315c1.4453-0.1925,2.6035-1.2728,3.0879-2.6362
		c0.5154-1.4512,0.2437-3.1895-0.7099-4.5361c-2.8196-3.984-8.1828-2.3512-8.2828-2.3667c1.4779-3.1097-0.4312-6.8545-4.2756-7.9697
		c-8.5492-2.4823-14.5947,9.1373-6.0756,14.8657c-7.2684,0.7594-12.5894-11.6317-0.4362-23.8735
		c3.7936-3.8221,8.3088-6.8561,13.6349-7.2476c6.9414-0.4789,10.4806,3.787,10.1733,7.4819
		c-5.8474-8.3304-17.2097-2.214-14.7576,6.2354c1.1184,3.8544,4.8685,5.7494,7.9695,4.2754
		c-0.0016,0.0059-0.0035,0.0112-0.0051,0.0176c-2.4625,9.8334,8.7576,11.8132,9.5424,5.8823
		c3.2478,11.7578,7.8608,16.4515,8.3871,17.3857c-0.304,0.2788-0.5947,0.5693-0.8733,0.8735
		C53.801,55.0219,49.1447,50.4036,37.3015,47.1315z M21.493,50.2438c2.7126,1.3163,2.7042,2.5111,9.1024,6.4683
		c-1.012-0.1349-1.9594,0.2462-2.6503,0.9126c-1.2451,1.1981-1.1132,2.8566-0.0667,3.5771
		c1.2278,0.8425,2.8806-0.3256,2.1016-1.0073c-0.5851-0.5138-0.8538,0.5123-1.4701,0.0889
		c-0.4509-0.3109-0.5319-1.1412,0.2089-1.856c1.1503-1.109,2.7729-0.6427,3.4102,0.6001c1.9674,3.8223-5.2126,7.8004-9.2904,0.9951
		c-1.2452-2.0795-0.6381-3.3961-2.8615-4.6611C21.3631,54.0551,21.8449,52.1221,21.493,50.2438z M20.0518,49.6823
		c0.7653,2.0658,0.0824,4.1479-1.2811,5.1045c-0.0549,0.0386-0.0947,0.0894-0.1328,0.1401
		c-3.5405-0.4139-4.4883,3.8594-1.8518,4.7329c0.925,0.3062,2.2409-0.1003,1.8047-0.8818
		c-0.3663-0.6495-0.7782,0.0419-1.4546-0.1768c-0.9984-0.3311-0.9195-1.5883-0.1895-2.1855
		c1.1325-0.9247,3.3026-0.3348,3.9372,1.7769c0.5536,2.1041-0.8543,3.9059-2.6258,4.5225c-1.3772,0.4829-3.0639,0.293-4.5059-0.5
		C6.6417,58.3035,10.9508,46.9695,20.0518,49.6823z M20.1696,80.258c-9.2189,2.8807-13.4958-8.6034-6.4175-12.499
		c3.6834-2.0255,7.9352,0.2428,7.1318,4.019c-0.0574,0.1003-0.4552,1.6897-2.0242,2.1133
		c-1.6371,0.4442-2.8614-0.8649-2.3724-1.9614c0.2158-0.4806,0.8928-0.7699,1.3453-0.5195
		c0.6426,0.3615,1.1877-0.6129,0.5436-0.9731c-1.0342-0.5767-2.4287-0.0297-2.9063,1.0376c-0.7736,1.7308,0.72,3.9076,3.2393,3.561
		C18.7921,75.1441,21.3568,76.9102,20.1696,80.258z M30.096,72.1759c-0.9931-0.0592-1.845-0.8964-1.9236-1.6367
		c-0.0848-0.7933,0.6766-1.2037,1.0213-0.8115c0.4875,0.5543,1.3245-0.182,0.8376-0.7358
		c-1.0602-1.2057-3.1693-0.2229-2.9672,1.6655c0.1552,1.4513,1.7648,2.8407,3.5268,2.6074
		c-6.1318,3.7933-6.5013,5.1666-8.9869,6.4106c0.3365-1.9371-0.2158-3.8373-1.5756-5.0957
		c2.1829-1.2887,1.5676-2.5527,2.8102-4.6284c0.7505-1.2524,1.6616-2.2119,2.707-2.8521c2.635-1.6145,5.5677-0.795,6.5612,1.2954
		C32.5023,69.2267,31.8032,72.2773,30.096,72.1759z M32.789,71.9669c2.7293-3.5685-2.2711-9.2186-7.8256-5.8184
		c-1.8248,1.1173-2.5639,2.5471-3.0894,3.2456c-1.1488-3.2318-5.1372-4.549-8.6595-2.6123
		c-7.838,4.3124-3.8129,16.7606,6.2067,14.8096c-2.5452,3.0923-8.4015,3.4124-13.1053-2.5044
		c-7.2629-9.2047-4.7472-30.6661,6.7081-32.7524c2.2628-0.4059,4.7781,0.2338,6.2649,2.022
		C9.2995,46.5633,5.4962,58.9455,13.2144,63.192c3.5455,1.9464,7.5184,0.5968,8.6595-2.6123
		c0.2922,0.3883,1.1619,2.0658,3.0894,3.2451c1.0939,0.6704,2.2979,1.0205,3.473,1.0205c0.3259,0,0.6499-0.0273,0.9681-0.082
		c3.576-0.6122,5.1927-4.3925,3.3866-6.7549c10.814,6.1327,17.2415,6.0758,18.2189,6.3608
		c-0.0091,0.2061-0.0313,0.4092-0.0313,0.6177c0,0.209,0.0223,0.4126,0.0314,0.6196C49.9574,65.9121,43.6381,65.8138,32.789,71.9669
		z M34.8284,83.4777c-2.2769,1.7413-1.1321,5.5377,1.2532,5.0962c1.4772-0.2732,1.7959-2.287,0.7756-2.1987
		c-0.778,0.0482-0.2424,0.9646-0.9788,1.1021c-0.5307,0.099-1.1828-0.4211-1.1644-1.4595c0.0459-2.5499,3.6295-2.9625,4.6239-0.1675
		c1.4032,3.9525-4.1177,7.7467-9.7568,4.5938c-0.9875-0.54-2.1626-0.6987-3.2083-0.4146c0.0437-1.9126-1.007-3.6176-2.5804-4.6797
		C24.7191,85.0255,27.4008,85.2282,34.8284,83.4777z M25.1123,90.5089c-0.0095,0.0537-0.0004,0.1055,0.004,0.1572
		c-1.9828,1.5621-1.4399,4.1139,0.2803,4.77c1.0958,0.4174,2.4688-0.1874,2.7883-1.3218c0.1987-0.708-0.871-1.0138-1.0735-0.3027
		c-0.1383,0.4919-0.8215,0.7729-1.3163,0.583c-2.154-0.8202,0.0135-4.7239,3.2137-3.0029c0.0009,0.001,0.0012,0.002,0.002,0.002
		c3.1323,2.0294,1.9599,6.6774-2.2021,7.8843c-5.1294,1.4926-9.9595-3.3077-8.4916-8.4521c0.5837-2.0455,2.1402-3.803,4.0577-4.8491
		C24.3737,86.8777,25.4033,88.8346,25.1123,90.5089z M44.7016,106.0861c-1.1255-1.5856-2.8504-2.548-4.7202-2.4688
		c0.28-1.049,0.1259-2.3231-0.5247-3.3853c-2.9299-4.9178,0.5151-11.0543,4.7007-9.5625c2.7515,0.9772,2.4252,4.579-0.1683,4.624
		c-0.9778,0.0378-1.5621-0.6086-1.4584-1.165c0.1326-0.722,1.0535-0.2145,1.1016-0.9771c0.0646-1.0262-1.9263-0.6998-2.1983,0.7749
		c-0.4456,2.4105,3.3736,3.5034,5.0954,1.2529C44.7856,102.5752,45.6318,103.3037,44.7016,106.0861z M35.8921,101.8224
		c-1.1355,0.3207-1.7401,1.6949-1.3211,2.7886c0.6835,1.7944,3.2629,2.2212,4.7844,0.2593
		c0.1642,0.0304,3.2057-0.5452,4.7444,2.6353c-4.4122,8.411-15.6561,3.5568-13.3704-4.3076
		c1.1699-4.036,5.7945-5.4432,7.8832-2.2007c0.0272,0.1,0.8735,1.5155,0.0638,2.9263c-0.8484,1.4772-2.6371,1.4044-3.0649,0.29
		c-0.1888-0.4982,0.0937-1.1801,0.5841-1.3184C36.4917,102.8117,36.6033,101.6226,35.8921,101.8224z M47.1651,92.7111
		c-0.6089-4.6002-8.165-4.7616-9.6472,1.4219c-0.5008,2.0802-0.0125,3.6165,0.1093,4.4785
		c-3.1137-1.4808-6.8572,0.4391-7.9684,4.2754c-2.4998,8.6014,9.1712,14.5363,14.8645,6.0762
		c0.4279,4.0653-3.5914,8.389-11.0346,7.5356c-11.6329-1.3708-25.0479-18.3243-18.4164-27.9028
		c1.2858-1.8501,3.4913-3.196,5.8117-3.0039c-7.2194,5.0701-3.6926,15.0625,4.0648,15.0625c0.7302,0,1.4614-0.0996,2.1713-0.3057
		c3.8536-1.1185,5.7488-4.8687,4.2761-7.9688c10.4693,2.0068,11.4546-8.8173,5.8997-9.5376
		c11.7783-3.2533,16.4454-7.8578,17.3855-8.3862c0.2783,0.3037,0.5688,0.5942,0.8726,0.8726
		C55.0473,76.23,50.46,80.7858,47.1651,92.7111z M56.7469,99.4128c-0.3657,2.733,3.0479,4.8082,4.4893,2.7173
		c0.84-1.2208-0.3189-2.881-1.0058-2.1035c-0.5197,0.588,0.5115,0.8529,0.088,1.4712c-0.3096,0.4504-1.1398,0.5345-1.8569-0.208
		c-1.0988-1.1398-0.6622-2.7611,0.5996-3.4102c1.7303-0.8883,4.1992,0.3456,4.6375,2.9131c0.3525,2.0504-0.6707,4.5975-3.6414,6.377
		c-1.9636,1.1758-3.4833,0.7806-4.6624,2.8613c-1.2995-1.3779-3.2328-1.8693-5.1165-1.5151
		C50.703,107.6408,53.0197,105.4383,56.7469,99.4128z M49.7158,109.9577c3.4486-1.2777,5.1448,1.338,5.2452,1.4136
		c-0.4126,3.5277,3.8555,4.4939,4.7325,1.8521c0.3101-0.9376-0.1118-2.2386-0.881-1.8057c-0.6508,0.3629,0.0427,0.7855-0.177,1.4551
		c-0.3356,1.0066-1.5953,0.9116-2.1867,0.189c-0.9257-1.1357-0.3301-3.2999,1.7638-3.9351c0.334-0.0846,0.2913-0.0748,0.2949-0.0757
		c3.1268-0.6412,5.9066,3.2695,3.7413,7.2056c-1.1644,2.1157-3.5688,3.5405-5.9828,3.5464
		c-2.4478,0.0259-4.8251-1.4072-5.9982-3.5186C49.2316,114.4215,49.0892,112.0635,49.7158,109.9577z M67.7925,116.2565
		c-0.7941-1.4419-0.9807-3.127-0.501-4.5063c1.2891-3.6945,5.8688-3.4193,6.6337-0.6006c0.6315,2.3341-2.019,3.2384-2.5195,1.7227
		c-0.0493-0.1475-0.1093-0.4336,0.0377-0.6948c0.3593-0.6449-0.611-1.1873-0.9729-0.5454
		c-0.2592,0.4639-0.3047,1.0435-0.1238,1.5908c0.8846,2.6664,5.216,1.6637,4.7222-1.9204c0.1018-0.0768,1.8633-2.6517,5.2211-1.4639
		C83.2273,119.2393,71.6463,123.2661,67.7925,116.2565z M69.0256,99.9772c-1.2068,1.0641-0.2214,3.172,1.6654,2.9678
		c1.4429-0.1527,2.8409-1.7526,2.6033-3.5322c3.7941,6.1348,5.1755,6.516,6.4144,8.9932c-2.0616-0.3569-3.9124,0.298-5.0951,1.5776
		c-1.5816-2.6835-5.015-1.4963-7.4808-5.52c-1.6284-2.6592-0.769-5.5795,1.296-6.5615c1.8919-0.9017,3.8791,0.3124,3.7806,2.0112
		c-0.0582,0.9835-0.8865,1.8436-1.6364,1.9233c-0.8018,0.0841-1.2007-0.6797-0.8105-1.0225
		C69.9937,100.6105,69.583,99.4898,69.0256,99.9772z M71.9995,97.2189c-2.3439-1.7971-6.1403-0.2083-6.7555,3.3853
		c-0.8234,4.7993,4.1099,7.4307,4.1831,7.5308c-3.238,1.151-4.5455,5.1461-2.6115,8.6587
		c4.324,7.8629,16.7541,3.7686,14.8082-6.2085c5.7377,4.7134,0.4255,17.1685-16.7406,17.1685
		c-16.9704,0-22.1061-12.3678-16.4931-17.0317c-0.3743,2.0745-0.118,4.2694,0.9026,6.104c2.3705,4.264,7.0753,4.121,6.9751,4.0923
		c7.9962-0.0192,10.6334-10.5469,4.3464-12.7832c0.0731-0.1,5.0081-2.7228,4.1829-7.5303c-0.6121-3.5873-4.408-5.1906-6.7552-3.3857
		c6.0269-10.6278,6.0721-17.1849,6.3618-18.2192c0.2067,0.0088,0.41,0.0313,0.6188,0.0313c0.2086,0,0.4116-0.0225,0.618-0.0313
		C65.9259,80.0171,65.8862,86.438,71.9995,97.2189z M65.0226,78.048c-7.2024,0-13.0613-5.8594-13.0613-13.061
		s5.8589-13.061,13.0613-13.061c7.2014,0,13.0603,5.8594,13.0603,13.061S72.224,78.048,65.0226,78.048z M83.5136,95.1823
		c1.6816,2.2003,5.5496,1.226,5.0958-1.2539c-0.2722-1.4569-2.2643-1.808-2.1993-0.7754c0.048,0.7661,0.9691,0.2532,1.1025,0.9775
		c0.0994,0.5349-0.4294,1.1893-1.4604,1.1655c-1.5652-0.0272-2.4252-1.469-1.9865-2.835c0.9435-2.9413,6.2268-2.8344,7.3765,1.9346
		c1.0972,4.5703-2.2502,6.1744-1.3683,9.2813c-1.7589-0.0591-3.5225,0.8224-4.6992,2.5107
		C85.0569,105.2697,85.2393,102.5038,83.5136,95.1823z M94.1502,101.8253c-0.2989-0.083-0.6045,0.0884-0.6886,0.3848
		c-0.2022,0.7203,0.5867,0.5209,0.9042,1.1533c0.1383,0.2759,0.1625,0.5947,0.0648,0.8525
		c-0.8269,2.1635-4.7193-0.0265-3.0028-3.2148c1.0958-1.8815,3.3706-2.1534,5.0532-1.3403c1.3143,0.6353,2.3734,1.959,2.8328,3.54
		c2.2737,7.8339-8.8359,12.7229-13.3229,4.395c0.3531-0.7422,0.8902-1.4209,1.5807-1.9131
		c1.6074-1.1461,2.8628-0.6962,3.1564-0.7534c0.5487,0.6792,1.3134,1.1426,2.1155,1.2227
		C95.911,106.4624,96.4762,102.4803,94.1502,101.8253z M107.6485,85.9684c8.2437,4.467,3.4816,15.6104-4.4139,13.3125
		c-1.5823-0.459-2.9053-1.5181-3.5408-2.8325c-1.8563-3.8439,1.963-6.4332,4.2651-5.1152c1.4748,0.8456,1.407,2.6388,0.2892,3.0645
		c-0.4882,0.1886-1.1782-0.0878-1.3173-0.5835c-0.0841-0.2964-0.3898-0.4688-0.6886-0.3843
		c-0.8532,0.2406-0.2321,1.4552,0.6538,1.8999c2.4954,1.2533,4.8267-2.4625,2.0281-4.6626c0.025-0.3147-0.3481-1.537,0.7486-3.0801
		C106.1778,86.8761,106.8803,86.3229,107.6485,85.9684z M95.33,86.0192c0.0161,1.0424-0.6428,1.5626-1.1654,1.4604
		c-0.7392-0.1366-0.1969-1.0529-0.9788-1.1025c-0.2785-0.0259-0.5725,0.2129-0.5909,0.521
		c-0.1018,1.6039,2.0847,2.401,3.2757,0.9204c0.8211-1.016,0.7783-2.818-0.2369-3.9575c-0.1264-0.1426-0.2697-0.2666-0.42-0.3813
		c7.4357,1.7531,8.2075,0.8885,11.0209,1.8662c-1.5729,1.077-2.6102,2.7839-2.5674,4.686c-2.9719-0.806-4.7811,2.4501-9.2385,1.376
		c-1.3115-0.3149-2.4614-1.0571-3.1548-2.0366c-1.4968-2.1165-0.6436-4.7415,1.2206-5.3384
		C93.3184,83.7687,95.2985,84.4322,95.33,86.0192z M92.7481,82.8444c-4.5283,0.5977-4.8167,8.1493,1.4194,9.6479
		c2.3199,0.5563,4.3613-0.1024,4.48-0.1104c-1.4752,3.1039,0.4235,6.8522,4.2756,7.9697
		c8.6281,2.5043,14.4229-9.0577,6.2047-14.7783c4.0446-0.36,8.2526,3.6117,7.3983,11.0049
		c-1.0504,8.5736-11.4083,19.3519-20.8237,20.0288c-6.9457,0.4749-10.5375-3.7983-10.1286-7.561
		c1.6346,2.3806,4.1906,4.0146,7.116,4.0146c8.4432,0,10.7312-11.2836,4.2767-14.4038c-1.4658-0.708-3.1787-0.6958-4.5515-0.043
		c-0.0156-0.1,1.6172-5.4652-2.3665-8.2827c-2.9703-2.1029-6.7836-0.5482-7.1712,2.3809
		c-3.2606-11.8036-7.858-16.4412-8.3868-17.3838c0.304-0.2783,0.5948-0.5693,0.8732-0.873
		C76.3098,74.9861,80.7748,79.5371,92.7481,82.8444z M79.0343,65.6051c0.009-0.2065,0.0313-0.4097,0.0313-0.6182
		c0-0.209-0.0223-0.4126-0.0314-0.6191c1.0137-0.2938,7.3958-0.2198,18.2236-6.3623c-0.1237,0.1606-0.2388,0.3286-0.3329,0.5117
		c-0.5464,1.0615-0.5445,2.3848,0.0058,3.541c0.6616,1.3911,2.0833,2.4277,3.709,2.7056c0.3182,0.0547,0.6422,0.082,0.9681,0.082
		c1.1751,0,2.3792-0.3501,3.473-1.0205c1.8248-1.1173,2.5638-2.5472,3.0894-3.2456c1.1506,3.2372,5.1423,4.5455,8.6595,2.6128
		c7.7363-4.2566,3.9487-16.64-6.0707-14.8359c4.6505-5.6178,17.0285-0.514,17.0285,16.6353c0,17.501-12.593,22.0529-17.0348,16.625
		c5.6183,1.0208,10.2128-2.8221,10.2009-7.8774c-0.0191-8.0308-10.5668-10.5747-12.7838-4.3452
		c-0.1-0.0731-2.7213-5.0095-7.5302-4.1831c-1.6258,0.2778-3.0475,1.3145-3.709,2.7051c-0.5503,1.1553-0.5532,2.4785-0.0068,3.541
		c0.0939,0.1826,0.2083,0.3501,0.3311,0.5098C86.3664,65.792,80.1747,65.9337,79.0343,65.6051z M100.013,68.9919
		c-0.2041,0.231-0.1818,0.5835,0.0493,0.7866c0.2302,0.2026,0.5842,0.1816,0.7863-0.0498c0.1441-0.1626,0.4749-0.1807,0.6848-0.0381
		c0.8992,0.6219-0.0494,2.3951-1.5851,2.4854c-0.8037,0.0435-1.6364-0.458-2.033-1.229c-0.382-0.7432-0.3743-1.7212,0.0213-2.5513
		c0.5087-1.0688,1.6171-1.8682,2.8908-2.0859c2.0393-0.3505,4.5901,0.658,6.3783,3.6421c1.263,2.1093,0.6262,3.4076,2.8808,4.6729
		c-1.2803,1.2133-1.8892,3.0924-1.5176,5.1138c-2.6577-1.282-2.6865-2.4961-9.1163-6.4741c0.129,0.0171,0.2588,0.0293,0.3892,0.0293
		c0.0571,0,0.1151-0.0015,0.1721-0.0044c0.7621-0.0449,1.503-0.3784,2.0852-0.9404c0.5038-0.4854,0.8163-1.0859,0.881-1.6909
		C103.1832,68.763,101.0659,67.7935,100.013,68.9919z"></path>
  <path d="M76.0316,64.9836c0-0.5449-1.9881-0.7185-2.3502-1.6758c-0.3873-1.0194,1.8652-2.0719-0.087-4.6392
		c-0.7435,1.5424-2.7163,2.0067-3.3898,2.897c-0.4628-0.6982-1.0624-1.2979-1.761-1.7607c0.8978-0.6788,1.3544-2.65,2.9003-3.3911
		c-2.6509-2.0536-3.5508,0.3315-4.6423-0.0854c-0.9316-0.3527-0.5789-2.3506-1.6829-2.3506c-0.5455,0-0.7195,0.4468-0.942,1.1812
		c-0.9728,3.2098-2.1378-1.1976-5.3735,1.2563c1.5422,0.7426,2.0099,2.7191,2.8978,3.3901
		c-0.6987,0.4629-1.2982,1.0625-1.761,1.7612c-0.6818-0.9028-2.6476-1.3521-3.3912-2.9014
		c-2.045,2.6453,0.3271,3.5548-0.0861,4.6426c-0.3546,0.9357-2.3502,0.577-2.3502,1.6831c0,1.3351,3.4214,0.6217,2.1238,2.7354
		c-1.0387,1.457-0.1712,2.9424,0.3134,3.5796c0.7435-1.5424,2.7179-2.0071,3.3905-2.8979c0.4628,0.6987,1.0623,1.2983,1.761,1.7612
		c-0.9002,0.6796-1.356,2.6504-2.9009,3.3911c2.3744,1.8429,3.4365,0.0376,4.3725,0.0376c1.2462,0,0.764,2.3984,1.9526,2.3984
		c1.128,0,0.7176-1.9857,1.6751-2.3501c1.0388-0.3864,2.058,1.8755,4.6404-0.0869c-1.5421-0.7426-2.0098-2.7192-2.8977-3.3901
		c0.6988-0.4624,1.2985-1.062,1.7613-1.7607c0.6705,0.8864,2.6552,1.3649,3.3908,2.9009c2.0506-2.6472-0.3292-3.5509,0.0861-4.6421
		C74.0358,65.7314,76.0316,66.0896,76.0316,64.9836z M65.0221,70.3522c-2.9631,0-5.3652-2.4019-5.3652-5.3647
		c0-2.9634,2.4021-5.3657,5.3652-5.3657s5.3652,2.4023,5.3652,5.3657C70.3873,67.9503,67.9852,70.3522,65.0221,70.3522z"></path>
</svg>
