<svg xmlns="http://www.w3.org/2000/svg" enable-background="new 0 0 130 130" viewBox="0 0 130 130" id="calligraphic-border">
  <path d="M1,65.0015c0.0002,1.5872,1.283,2.8406,2.8188,2.8427c0.2508,0.0002,0.419-0.0397,0.866-0.1052
		c-0.7443,1.8844,0.7867,3.3144,2.6474,3.317c0.049,0,0.0898-0.0081,0.1307-0.0081c2.2496-0.1377,2.6992-3.2617,13.3306-5.674
		c27.8143,0.5611,28.9729-0.0898,32.3578,0.5535c6.2369,1.1058,10.5342,5.6093,11.218,9.025
		c0.1926,0.9333,0.1283,2.1563-0.3076,3.1575c-0.8181,1.8403-2.6736,3.0762-4.6618,3.0754
		c-1.8865-0.0454-3.3834-1.2014-4.0383-2.5682c-0.9655-1.9492,0.1647-4.1921,1.9297-4.21c1.8997-0.0484,2.1843,1.6397,2.2847,1.62
		c0.2561,0.0429-0.2137-1.9975-2.2844-2.109c-1.3084-0.0391-2.5289,0.9197-2.894,2.3895c0.1193-0.5679,0.1718-1.1445,0.1429-1.7136
		c-0.1338-2.8315-1.7811-4.6589-3.7831-5.2415c-2.2807-0.7584-3.9677,0.0845-5.9503,1.4095
		c-0.9891,0.649-2.1233,1.5208-3.3853,2.3618c-0.5938,0.3807-1.3293,0.5751-2.0752,0.4873
		c-2.7722-0.3202-3.4836-3.979-1.4083-4.7847c1.2256-0.5073,2.7471,0.3948,2.6128,1.3945c0.0106,0.5011-0.3079,0.8597-0.6714,1.0046
		c-0.369,0.1417-0.7583,0.1127-1.0145-0.0094c-0.5425-0.2526-0.5297-0.7084-0.6064-0.6824c-0.2588,0,0.1942,1.5591,1.7687,1.1249
		c0.8946-0.2236,1.4431-1.3461,0.8887-2.4636c-0.6654-1.0917-2.0518-1.5056-3.2549-1.0702
		c-2.9001,1.0782-2.0297,5.9019,1.5919,6.2827c0.9464,0.1028,1.8766-0.1715,2.579-0.651c1.1825-0.8346,2.1545-1.6361,3.0272-2.3051
		c-0.3295,0.5458-0.545,1.1378-0.6087,1.7373c-0.0927,0.8317,0.1399,1.6824,0.642,2.2546c0.9143,0.9695,2.1438,1.3962,3.3947,1.0016
		c1.8248-0.5748,1.8984-2.2975,1.739-2.2635c-0.1002-0.0077-0.1495,1.4255-1.8605,1.8253
		c-1.0775,0.2544-2.0661-0.1619-2.7648-0.9738c-0.7498-0.9233-0.515-2.5369,0.5223-3.6642
		c0.9924-1.1807,2.8322-1.7352,4.5242-1.0986c1.6823,0.5239,2.9344,2.0502,3.0168,4.3552c0.0416,1.0125-0.207,2.072-0.7167,3.0076
		c-1.2999,2.3716-3.0331,3.0246-5.3811,3.3108c-2.5471,0.2724-2.7869-0.2867-15.3629-8.6074
		c-5.3566-3.3733-7.1218-4.92-11.4783-1.9445c-0.9858,0.6555-2.0917,1.5441-3.3961,2.2955
		c-1.7262,0.9688-3.173,0.5751-4.0557-0.5132c-1.0356-1.2868-0.6965-3.1878,0.5962-3.712c1.1659-0.5814,2.652,0.3517,2.6044,1.3774
		c-0.0375,0.7913-0.8507,1.3914-1.6815,1.0012c-0.5396-0.2695-0.5657-0.6985-0.6245-0.6791
		c-0.0467-0.0383-0.1694,0.4973,0.4653,0.9551c0.9526,0.6489,2.2764-0.0034,2.418-1.2356c0.1393-1.4907-1.7441-2.8594-3.4783-2.1125
		c-1.7377,0.6429-2.3437,3.1625-0.9385,4.9174c1.1324,1.3955,2.9904,1.8853,5.0711,0.6549c1.194-0.733,2.1363-1.5214,2.9771-2.1815
		c-0.6862,1.3904-0.4499,3.0828,0.5955,3.9301c1.2543,1.0102,2.8048,0.7186,3.4559-0.2104c0.5245-0.714,0.271-1.7314-0.3578-2.172
		c-0.4631-0.3138-0.7824-0.188-0.7661-0.1683c-0.0083,0.0552,0.2845,0.0341,0.6157,0.3496
		c0.3039,0.2751,0.6696,1.0781,0.1455,1.7163c-0.5361,0.6582-1.7211,0.8165-2.6628-0.0065
		c-0.8788-0.7676-0.9343-2.4617,0.041-3.6011c1.0902-1.2697,3.1934-1.4844,4.5578-0.9176c1.711,0.7031,3.4637,1.9546,5.3038,3.1559
		c12.0783,8.1622,12.8579,9.2026,16.0177,8.869c2.9855-0.3788,4.9057-1.3126,6.3104-3.9602
		c0.2758-0.5226,0.4769-1.0751,0.6126-1.6378c-0.142,0.7679-0.0786,1.6348,0.2804,2.4381c0.7147,1.6388,2.4473,3.1062,4.7462,3.2097
		c2.2542,0.0612,4.4963-1.2154,5.6067-3.4427c0.457,1.1121,1.3324,2.0398,2.3183,2.5735c4.1543,2.215,8.8152-0.6741,8.3878-4.47
		c0.9265,3.0859,3.884,5.223,6.9235,5.3431c2.914,0.1161,4.7643-1.37,7.1882-2.9806c6.652-4.4323,9.634-6.446,11.5288-7.7227
		c2.3965-1.6539,5.3351-2.6497,7.1007-0.417c0.9674,1.137,1.0239,2.8489,0.0624,3.5558c-1.0213,0.8572-2.1605,0.6337-2.6676,0.0106
		c-0.5237-0.6382-0.158-1.441,0.1458-1.7161c0.3311-0.3154,0.6239-0.2944,0.6156-0.3495c0.0833-0.1001-0.9701-0.1513-1.3331,0.9778
		c-0.1315,0.3676-0.1157,0.9197,0.209,1.3621c0.6179,0.8829,2.1017,1.251,3.4471,0.2181c1.2178-0.8906,1.2839-2.6283,0.5383-4.0022
		c2.4904,1.9124,3.5816,3.1578,5.5842,2.9413c0.9416-0.0978,1.8737-0.5785,2.5251-1.3505c1.4177-1.5422,0.8431-4.2515-0.9355-4.9192
		c-0.8338-0.3597-1.7984-0.2383-2.4522,0.2236c-0.6469,0.4346-1.0976,1.1686-1.0214,1.8992
		c0.1306,1.201,1.4046,1.9019,2.4146,1.2285c0.6358-0.4576,0.5131-0.9941,0.4664-0.9557c-0.0587-0.0194-0.0849,0.41-0.6253,0.6796
		c-0.8757,0.4011-1.6463-0.2209-1.6782-0.9934c-0.0213-0.4723,0.304-0.97,0.8132-1.2886c0.4965-0.3182,1.1832-0.3762,1.7822-0.1016
		c1.2532,0.4984,1.6981,2.5074,0.6078,3.7031c-0.5075,0.6013-1.2475,0.9938-1.9895,1.0784
		c-1.7783,0.2081-2.5697-0.9538-5.4592-2.8497c-0.9879-0.6602-1.8481-1.1345-2.5067-1.3359
		c-0.2441-0.0841-0.4401-0.1085-0.6076-0.1152c-2.0198-0.3725-3.8626,0.5048-5.5915,1.6523
		c-2.3078,1.5045-5.0505,3.2891-11.6141,7.6171c-2.2046,1.4575-3.898,2.8786-6.4968,2.7891
		c-3.4052-0.1203-6.3702-3.1809-6.1636-6.3099c0.0309-2.0365,1.3271-3.8347,3.0259-4.4105
		c1.6901-0.6653,3.5164-0.0505,4.5519,1.0641c1.0878,1.0906,1.198,2.7139,0.4812,3.6697c-0.7042,0.9807-1.9048,1.2189-2.7255,0.998
		c-1.8264-0.4457-1.7134-1.8377-1.8625-1.8268c-0.1621-0.0345-0.1025,1.6655,1.7377,2.264
		c0.9374,0.3285,2.4207,0.1552,3.3737-1.0446c0.4554-0.5881,0.7247-1.3961,0.6577-2.2408
		c-0.0401-0.5663-0.2339-1.1376-0.5381-1.6593c0.8563,0.6592,1.8089,1.4409,2.962,2.255c0.7026,0.4796,1.6326,0.7531,2.5784,0.6512
		c3.6149-0.379,4.5003-5.1739,1.5893-6.2688c-0.8339-0.3599-1.7985-0.2386-2.4524,0.2234
		c-1.5539,1.0436-1.1779,2.9264,0.0754,3.3086c0.533,0.1901,1.0244,0.0145,1.3175-0.1808c0.6359-0.4578,0.5132-0.9941,0.4664-0.9558
		c-0.0588-0.0194-0.085,0.4102-0.6254,0.6797c-0.2686,0.123-0.6389,0.1998-0.9945,0.0295
		c-0.8304-0.3307-1.0294-1.5869,0.1298-2.3116c0.4965-0.3184,1.1833-0.3761,1.7822-0.1013c2.1374,0.8497,1.4002,4.4598-1.381,4.7806
		c-0.7462,0.087-1.4817-0.1068-2.0751-0.4874c-3.5218-2.3479-6.0623-4.9325-9.3717-3.7601
		c-2.0896,0.6528-3.7173,2.8546-3.7784,5.2764c-0.0333,0.451,0.0053,0.901,0.0764,1.347c-0.2164-0.605-0.5826-1.1208-1.0301-1.4714
		c-0.5568-0.4338-1.1904-0.6157-1.7695-0.5972c-2.0672,0.1148-2.5096,2.1477-2.2798,2.1091c0.1,0.0196,0.4068-1.665,2.2811-1.6201
		c0.9268,0.0066,2.0258,0.8147,2.2405,2.1395c0.6123,3.171-3.5255,5.8745-7.1315,3.8303c-1.8415-0.9832-2.5282-3.409-2.0895-5.4285
		c1.0976-4.7401,6.2304-8.1546,11.1791-9.0055c1.2583-0.2334,2.4963-0.2991,3.7667-0.3188
		c3.0559,0.1079,25.6283-0.1904,28.6819-0.2527c10.4943,2.4347,10.9493,5.5419,13.1865,5.6844l0.1144,0.0001
		c1.8729,0.0026,3.4344-1.4256,2.6547-3.3345l0.433,0.066c1.7238,0.2722,3.2595-1.0592,3.2593-2.8019
		c-0.0003-1.7431-1.5522-3.0847-3.2601-2.8025l-0.4248,0.0649c0.7421-1.879-0.7764-3.3144-2.6474-3.317
		c-0.049-0.0001-0.0899,0.0082-0.1307,0.0081c-1.5346,0.094-2.2302,1.578-5.8907,3.2775c0.835-0.3657,1.4868-1.1748,1.6601-2.1447
		c0.5518-3.0994-3.1822-5.3343-5.8641-3.4697c-1.0902,0.8026-2.0381,1.5264-2.8773,2.1726c0.6814-1.384,0.307-2.9352-0.655-3.8365
		c-0.5515-0.5154-1.3004-0.7487-1.9397-0.6635c-1.3371,0.1481-2.0472,1.2641-1.714,2.196c0.3642,1.1314,1.4168,1.0773,1.333,0.9773
		c0.0083-0.0552-0.2844-0.0342-0.6154-0.3495c-0.3039-0.2749-0.6696-1.0774-0.1463-1.7157c0.489-0.6329,1.8098-0.8417,2.6284,0.0249
		c0.8215,0.8236,1.069,2.4995-0.0076,3.5895c-1.8456,2.043-4.7263,1.2213-7.165-0.4979
		c-14.4574-9.743-15.6166-10.9529-18.7287-10.6157c-1.335,0.007-2.6348,0.4897-3.7506,1.1482
		c-1.5132,0.8867-2.6889,2.6107-3.1396,4.3553c0.0511-0.3472,0.0544-0.6978,0.0586-1.0651
		c-0.0685-0.4252-0.1247-0.8719-0.3324-1.2881c-0.3616-0.8435-1.0263-1.6012-1.8724-2.1368
		c-1.6821-1.0237-4.1156-1.3849-6.2554-0.2078c-0.9934,0.5515-1.7679,1.457-2.267,2.5227c-0.4771-1.073-1.3245-1.9829-2.2921-2.5065
		c-2.1084-1.1271-4.5668-0.9484-6.2559,0.1659c-1.6323,1.0956-2.387,2.97-2.1068,4.5295c-0.4432-1.7352-1.629-3.4875-3.1558-4.377
		c-1.2604-1.0281-3.6534-1.1245-3.7544-1.1417c-2.4575-0.2599-4.2518,0.9706-5.6345,1.8639
		C26.7417,59.7488,27.605,59.4275,26.1339,59.9c-4.2059,1.4859-6.669-2.7261-4.6248-4.5114
		c1.7616-1.5396,3.9191,0.4406,2.5173,1.7098c-0.3311,0.3154-0.624,0.2944-0.6157,0.3496c-0.084,0.1003,0.9704,0.151,1.3333-0.9781
		c0.577-1.6137-1.7818-3.0891-3.6653-1.5728c-1.04,0.8428-1.278,2.5219-0.6049,3.9081c-0.8506-0.6549-1.81-1.3969-2.9276-2.2006
		c-1.5716-1.0813-3.7366-0.9033-5.0975,0.7015c-1.3696,1.5341-0.9188,4.2345,0.9059,4.9261
		c-3.6637-1.7124-4.3599-3.2036-5.8934-3.3013L7.3469,58.931c-1.857-0.0023-3.437,1.418-2.6547,3.3346l-0.433-0.0662
		C2.5354,61.9272,0.9997,63.2588,1,65.0015z M65.0514,73.2429c-1.3125-3.2886-5.1596-6.9358-10.4121-8.274
		c5.4007-1.2079,9.1177-5.0611,10.3589-8.2091c1.0305,2.5404,3.4977,5.363,7.5183,7.2854c0.8766,0.4336,1.8252,0.7361,2.7916,0.9626
		C70.9538,66.1265,66.6935,69.0563,65.0514,73.2429z M67.7861,49.5901c1.6909-0.9946,3.8172-0.7667,5.2702,0.0659
		c1.4837,0.8566,2.1573,2.441,1.9004,3.7645c-0.2419,1.3016-1.337,2.1573-2.2499,2.1594c-0.9434,0.0233-1.6097-0.5173-1.8972-0.9136
		c-0.3057-0.4158-0.3284-0.7177-0.3857-0.7064c-0.0262-0.0045-0.099,0.3193,0.1712,0.8408
		c0.2593,0.4934,0.9446,1.2043,2.1108,1.2682c1.1095,0.0665,2.4211-0.816,2.8694-2.2947c-0.1066,0.5382-0.1579,1.0831-0.1304,1.6221
		c0.132,2.8237,1.7815,4.6509,3.7877,5.2345c2.1476,0.7921,4.0668-0.1406,5.9598-1.4058c0.9891-0.6489,2.1232-1.5206,3.3849-2.3616
		c0.5934-0.3801,1.3293-0.5734,2.076-0.4869c0.7418,0.0865,1.4854,0.473,1.9915,1.0752c1.0921,1.1985,0.6328,3.1967-0.6115,3.7112
		c-0.6031,0.2693-1.2813,0.2139-1.7758-0.1055c-0.4982-0.311-0.8203-0.8442-0.8273-1.3121
		c-0.0245-0.4768,0.3185-0.8184,0.6848-0.9883c0.3597-0.1609,0.7394-0.1051,0.9984,0.0193
		c0.5485,0.2651,0.5634,0.6958,0.6276,0.6768c0.0222,0.0004,0.0607-0.0969,0.0248-0.2875c-0.04-0.1837-0.1815-0.4598-0.4931-0.6653
		c-0.3004-0.2043-0.79-0.3468-1.3187-0.1718c-0.2553,0.0955-0.5045,0.2355-0.7292,0.4701c-0.1999,0.2428-0.3773,0.574-0.3733,0.9353
		c-0.0261,0.718,0.3779,1.4337,1.0311,1.8893c0.6537,0.4675,1.6187,0.5865,2.4551,0.2299c1.7624-0.6843,2.358-3.376,0.9354-4.9263
		c-0.6517-0.7743-1.5876-1.2476-2.5274-1.3469c-0.9455-0.101-1.8754,0.1711-2.5787,0.6506
		c-1.1594,0.8184-2.1159,1.6044-2.9756,2.2655c0.8544-1.4218,0.6679-2.9169-0.1159-3.9321
		c-0.7193-0.9223-2.0357-1.3958-3.3839-1.0089c-2.0832,0.5496-1.8506,2.8087-1.6353,2.0667c0.2361-0.9239,0.8971-1.467,1.7478-1.626
		c0.8198-0.1971,2.0565-0.0054,2.7501,0.9619c0.6946,0.9908,0.6775,2.4409-0.463,3.6666c-1.0158,1.1138-2.8723,1.7501-4.5476,1.089
		c-1.6929-0.5261-2.9416-2.0568-3.0226-4.3483c-0.0929-2.2391,1.3076-4.4622,2.8923-5.3643
		c0.2131-0.1792,0.4874-0.2568,0.7351-0.3816c1.3855-0.6303,2.2142-0.5218,2.4708-0.575
		c2.8276-0.3099,3.3917,0.7245,18.1084,10.3193c1.6828,1.1499,3.4678,1.981,5.4935,1.6885c1.1977,0.0289,2.5947-1.039,3.2447-1.4705
		c0.9683-0.6709,2.116-1.4661,3.3895-2.3483c2.0749-1.4421,5.0627,0.3079,4.661,2.701c-0.1121,0.7063-0.5953,1.325-1.1819,1.5959
		c-1.1614,0.5562-2.6204-0.3001-2.6038-1.39c-0.0029-0.8118,0.8924-1.3688,1.6763-0.9945c0.5398,0.2697,0.5659,0.6986,0.6247,0.6792
		c0.0468,0.0385,0.1694-0.4974-0.4656-0.9552c-0.9542-0.6403-2.3199,0.0073-2.4136,1.244
		c-0.1088,1.5743,1.8165,2.8322,3.4888,2.1052c-1.6473,0.7644-3.8991,1.5715-7.0932,2.316
		c-16.7594-0.4507-28.0975,0.1967-32.6838-0.4937c-4.9282-0.6754-10.8109-4.9632-11.3076-9.663
		c0.0237-0.359,0.0252-0.7178-0.0048-1.0724C65.7118,51.7368,66.5593,50.2993,67.7861,49.5901z M16.8382,60.0973
		c-0.0416-1.2295-1.4909-1.8432-2.4163-1.2341c-0.5472,0.3512-0.5534,0.9618-0.4534,0.9618c0.0767,0.026,0.064-0.4299,0.6066-0.6824
		c0.7133-0.3397,1.7051,0.1157,1.6857,0.9951c0.1554,1.1922-2.1123,2.34-3.3751,0.7972c-0.671-1.0748-0.528-2.2302,0.1941-3.1072
		c1.0741-1.2599,2.7542-1.4323,4.0524-0.5927c1.6022,1.105,4.1685,2.8983,4.7468,3.2249c3.9808,2.2299,6.6729-0.559,20.5621-9.7413
		c1.295-0.8403,2.7917-1.9043,4.9268-1.6755c0.1,0.0167,2.1956,0.0952,3.2096,0.951c1.5678,0.8869,2.9909,3.0904,2.9016,5.3622
		c-0.0783,2.2964-1.3319,3.8332-3.0168,4.3546c-1.6755,0.6639-3.5329,0.0297-4.5507-1.0835
		c-0.5157-0.554-0.8635-1.2235-0.919-1.8875c-0.1924-1.9233,1.5252-3.1467,3.2022-2.7446c1.739,0.3248,1.6977,1.8117,1.8318,1.8101
		c0.155-0.0019,0.103-1.7703-1.7195-2.2507c-2.1891-0.6255-4.1891,0.9539-4.0551,3.2482c0.0289,0.5754,0.2321,1.1407,0.5393,1.6613
		c-2.4922-1.9586-3.6198-2.9189-5.5352-2.8811c-2.2068,0.1815-3.5861,2.2433-3.262,4.1293c0.1189,0.969,0.8304,1.8148,1.6666,2.1294
		c0.8336,0.3829,1.7841,0.2209,2.4432-0.2091c1.4635-0.939,1.3097-2.8842-0.0612-3.3052c-1.4523-0.4774-2.053,1.1302-1.7837,1.1257
		c0.005,0.0015,0.5561-1.1717,1.6237-0.697c0.9194,0.3688,0.9195,1.6959-0.1375,2.3003c-0.5027,0.2947-1.2027,0.3921-1.7889,0.0913
		c-2.0409-0.7203-1.4399-4.487,1.3844-4.7672c1.7289-0.1276,3.0602,1.2289,5.4774,2.8392c1.8565,1.2707,3.8327,2.1945,5.9564,1.4083
		c2.0264-0.5873,3.6536-2.4444,3.7808-5.2421c0.0265-0.5408-0.0255-1.0876-0.1332-1.6276c0.1957,0.7096,0.5983,1.3154,1.1032,1.7118
		c0.5566,0.4346,1.1904,0.6168,1.7697,0.5988c1.166-0.0641,1.8509-0.775,2.1102-1.2683c0.2701-0.5215,0.1973-0.8452,0.1711-0.8407
		c-0.0573-0.0112-0.08,0.2905-0.3856,0.7062c-0.2874,0.3962-0.9534,0.9369-1.8967,0.9138
		c-0.9271-0.0074-2.0264-0.8163-2.2397-2.1422c-0.2497-1.2971,0.4509-2.9276,1.8752-3.8198
		c1.4095-0.8835,3.5471-0.9796,5.263-0.0046c5.0551,2.7357,1.3792,12.8-9.0655,14.3627
		c-5.9164,0.8955-13.1146,0.0733-32.7828,0.5702c-3.1321-0.7439-5.3443-1.5464-6.9731-2.3062
		C15.2188,62.9099,17.0764,61.4765,16.8382,60.0973z"></path>
</svg>
